HIERARCHY
ROOT joint_Root
{
	OFFSET 0.0 0.0 0.0
	CHANNELS 6 Xposition Yposition Zposition Zrotation Xrotation Yrotation 
	JOINT Hips
	{
		OFFSET -0.726466 93.3139 -2.00062
		CHANNELS 6 Xposition Yposition Zposition Zrotation Xrotation Yrotation 
		JOINT Spine
		{
			OFFSET 15.7357 0.0 0.0
			CHANNELS 6 Xposition Yposition Zposition Zrotation Xrotation Yrotation 
			JOINT Chest
			{
				OFFSET 8.98455 -0.406207 0.0
				CHANNELS 6 Xposition Yposition Zposition Zrotation Xrotation Yrotation 
				JOINT Neck
				{
					OFFSET 16.3773 0.0 0.0
					CHANNELS 6 Xposition Yposition Zposition Zrotation Xrotation Yrotation 
					JOINT Head
					{
						OFFSET 6.45672 0.0 0.0
						CHANNELS 6 Xposition Yposition Zposition Zrotation Xrotation Yrotation 
						End Site
						{
							OFFSET 0.0 0.0 0.0
						}
					}
				}
				JOINT Shoulder_L
				{
					OFFSET 12.9942 -0.242716 4.98039
					CHANNELS 6 Xposition Yposition Zposition Zrotation Xrotation Yrotation 
					JOINT UpperArm_L
					{
						OFFSET 5.34809 0.0 0.0
						CHANNELS 6 Xposition Yposition Zposition Zrotation Xrotation Yrotation 
						JOINT LowerArm_L
						{
							OFFSET 24.3286 1.87007e-05 0.0
							CHANNELS 6 Xposition Yposition Zposition Zrotation Xrotation Yrotation 
							JOINT Hand_L
							{
								OFFSET 22.2916 0.0 0.0
								CHANNELS 6 Xposition Yposition Zposition Zrotation Xrotation Yrotation 
								End Site
								{
									OFFSET 0.0 0.0 0.0
								}
							}
						}
					}
				}
				JOINT Shoulder_R
				{
					OFFSET 12.9945 -0.242716 -4.98039
					CHANNELS 6 Xposition Yposition Zposition Zrotation Xrotation Yrotation 
					JOINT UpperArm_R
					{
						OFFSET -5.34813 0.0 0.0
						CHANNELS 6 Xposition Yposition Zposition Zrotation Xrotation Yrotation 
						JOINT LowerArm_R
						{
							OFFSET -24.3289 0.000322201 0.0
							CHANNELS 6 Xposition Yposition Zposition Zrotation Xrotation Yrotation 
							JOINT Hand_R
							{
								OFFSET -22.2915 -0.000108084 0.0
								CHANNELS 6 Xposition Yposition Zposition Zrotation Xrotation Yrotation 
								End Site
								{
									OFFSET 0.0 0.0 0.0
								}
							}
						}
					}
				}
			}
		}
		JOINT UpperLeg_L
		{
			OFFSET -2.19248 -6.46944 0.0
			CHANNELS 6 Xposition Yposition Zposition Zrotation Xrotation Yrotation 
			JOINT LowerLeg_L
			{
				OFFSET 39.0811 0.0 -1.23785e-05
				CHANNELS 6 Xposition Yposition Zposition Zrotation Xrotation Yrotation 
				JOINT Foot_L
				{
					OFFSET 40.9854 0.0 -1.26872e-05
					CHANNELS 6 Xposition Yposition Zposition Zrotation Xrotation Yrotation 
					JOINT Toes_L
					{
						OFFSET 11.7543 0.0 0.0
						CHANNELS 6 Xposition Yposition Zposition Zrotation Xrotation Yrotation 
						End Site
						{
							OFFSET 0.0 0.0 0.0
						}
					}
				}
			}
		}
		JOINT UpperLeg_R
		{
			OFFSET -2.19251 6.46944 0.0
			CHANNELS 6 Xposition Yposition Zposition Zrotation Xrotation Yrotation 
			JOINT LowerLeg_R
			{
				OFFSET -39.0811 -0.00228153 -0.0401928
				CHANNELS 6 Xposition Yposition Zposition Zrotation Xrotation Yrotation 
				JOINT Foot_R
				{
					OFFSET -40.9854 0.0 0.0
					CHANNELS 6 Xposition Yposition Zposition Zrotation Xrotation Yrotation 
					JOINT Toes_R
					{
						OFFSET -11.7543 0.0 0.0
						CHANNELS 6 Xposition Yposition Zposition Zrotation Xrotation Yrotation 
						End Site
						{
							OFFSET 0.0 0.0 0.0
						}
					}
				}
			}
		}
	}
}
MOTION
Frames:	6
Frame Time:	0.0333333
0.000000 0.000000 0.000000 0.000000 0.000000 -0.000000 132.758000 87.910600 151.766000 98.384400 -33.951400 12.677600 15.735700 0.000005 -0.000001 92.173700 83.184600 -91.258400 8.984550 -0.406207 -0.000000 5.851880 0.500416 1.802940 16.377300 -0.000001 -0.000001 6.829680 -18.861900 8.780070 6.456720 -0.000001 -0.000000 3.817240 -29.120400 2.570020 12.994200 -0.242716 4.980390 -88.852600 -3.177190 -70.131600 5.348090 -0.000007 -0.000001 -71.747900 36.520300 -2.939700 24.328600 0.000019 0.000005 3.727000 5.639680 -33.536100 22.291600 -0.000001 0.000005 1.283540 5.557840 -9.079510 12.994500 -0.242716 -4.980390 88.744000 3.006030 -67.311800 -5.348130 -0.000001 -0.000004 -61.202100 31.601900 -21.497700 -24.328900 0.000322 -0.000009 5.014460 8.427010 -30.917000 -22.291500 -0.000108 -0.000004 3.269130 5.527670 -7.693050 -2.192480 -6.469440 -0.000000 -173.550000 -2.284560 -8.362620 39.081100 -0.000007 -0.000012 -0.088317 0.046276 62.349200 40.985400 -0.000006 -0.000013 3.833940 -10.905400 -58.705100 11.754300 -0.000000 0.000003 -0.005950 -0.070388 -19.441400 -2.192510 6.469440 -0.000001 -173.572000 22.901400 176.329000 -39.081100 -0.002282 -0.040193 0.048902 -0.070309 32.969400 -40.985400 0.000008 0.000006 19.633200 -10.580800 -73.072200 -11.754300 -0.000006 -0.000006 -0.007165 -0.081074 -19.873700
0.000000 0.000000 0.000000 0.000000 0.000000 -0.000000 131.379000 88.457100 153.160000 99.940800 -39.176700 12.953300 15.735700 0.000005 -0.000001 98.802000 83.205200 -98.311200 8.984550 -0.406207 -0.000000 5.657730 2.065390 0.878549 16.377300 -0.000001 -0.000001 7.021450 -17.723600 8.527610 6.456720 -0.000001 -0.000000 4.019740 -28.872700 2.487680 12.994200 -0.242716 4.980390 -88.823900 -3.057920 -68.949800 5.348090 -0.000007 -0.000001 -73.560500 35.234600 0.349030 24.328600 0.000019 0.000005 3.814820 6.303940 -31.272100 22.291600 -0.000001 0.000005 0.816306 5.550620 -8.733620 12.994500 -0.242716 -4.980390 89.049100 2.388300 -68.284100 -5.348130 -0.000001 -0.000004 -59.220000 32.967100 -25.638600 -24.328900 0.000322 -0.000009 5.046450 7.449320 -34.267300 -22.291500 -0.000108 -0.000004 3.282760 5.531570 -7.864370 -2.192480 -6.469440 -0.000000 -174.668000 1.058470 -10.650900 39.081100 -0.000007 -0.000012 -0.071786 0.047012 56.781800 40.985400 -0.000006 -0.000013 2.849340 -10.042100 -60.174200 11.754300 -0.000000 0.000003 -0.005844 -0.069422 -19.402000 -2.192510 6.469440 -0.000001 -174.341000 19.155400 178.760000 -39.081100 -0.002282 -0.040193 0.034809 -0.054111 30.211000 -40.985400 0.000008 0.000006 19.770400 -8.557870 -72.611700 -11.754300 -0.000006 -0.000006 -0.007840 -0.086720 -20.104200
0.000000 0.000000 0.000000 0.000000 0.000000 -0.000000 130.177000 88.892000 154.516000 101.581000 -44.365400 13.300900 15.735700 0.000005 -0.000001 104.858000 83.145800 -104.734000 8.984550 -0.406207 -0.000000 5.488250 3.504540 0.079720 16.377300 -0.000001 -0.000001 7.027070 -16.593100 8.034520 6.456720 -0.000001 -0.000000 4.092710 -28.502800 2.383380 12.994200 -0.242716 4.980390 -88.785900 -2.983340 -67.842500 5.348090 -0.000007 -0.000001 -74.987500 34.282600 3.009510 24.328600 0.000019 0.000005 4.241670 7.683930 -29.018000 22.291600 -0.000001 0.000005 0.613084 5.541770 -8.322900 12.994500 -0.242716 -4.980390 89.412600 1.553030 -69.282800 -5.348130 -0.000001 -0.000004 -57.053000 33.940000 -29.867900 -24.328900 0.000322 -0.000009 5.041970 6.611690 -37.469700 -22.291500 -0.000108 -0.000004 3.213250 5.532780 -7.918290 -2.192480 -6.469440 -0.000000 -175.094000 3.305780 -13.214400 39.081100 -0.000007 -0.000012 -0.046850 0.038205 50.806100 40.985400 -0.000006 -0.000013 1.588640 -8.821260 -61.007300 11.754300 -0.000000 0.000003 -0.005511 -0.066337 -19.276300 -2.192510 6.469440 -0.000001 -175.141000 15.612700 -179.248000 -39.081100 -0.002282 -0.040193 0.019407 -0.030641 27.719800 -40.985400 0.000008 0.000006 19.903600 -6.525690 -72.438000 -11.754300 -0.000006 -0.000006 -0.084419 -0.174167 -20.404400
0.000000 0.000000 0.000000 0.000000 0.000000 -0.000000 129.119000 89.185000 155.821000 102.855000 -49.052000 13.356500 15.735700 0.000005 -0.000001 108.943000 83.061500 -109.032000 8.984550 -0.406207 -0.000000 5.376020 4.496660 -0.389647 16.377300 -0.000001 -0.000001 6.766090 -15.546300 7.311170 6.456720 -0.000001 -0.000000 4.087240 -27.848200 2.295520 12.994200 -0.242716 4.980390 -88.790100 -2.842720 -66.932500 5.348090 -0.000007 -0.000001 -76.204200 32.898700 5.210360 24.328600 0.000019 0.000005 4.315490 8.596340 -26.788000 22.291600 -0.000001 0.000005 0.348877 5.532320 -7.895490 12.994500 -0.242716 -4.980390 89.707500 0.807173 -70.082300 -5.348130 -0.000001 -0.000004 -54.248000 34.522600 -34.614200 -24.328900 0.000322 -0.000009 4.958480 5.928850 -40.033600 -22.291500 -0.000108 -0.000004 3.363950 5.535440 -8.037410 -2.192480 -6.469440 -0.000000 -174.985000 4.669700 -16.339700 39.081100 -0.000007 -0.000012 -0.023006 0.023057 44.940900 40.985400 -0.000006 -0.000013 1.864320 -7.498860 -61.008700 11.754300 -0.000000 0.000003 -0.005808 -0.069089 -19.388500 -2.192510 6.469440 -0.000001 -175.682000 12.486500 -177.838000 -39.081100 -0.002282 -0.040193 0.005913 -0.005408 25.700800 -40.985400 0.000008 0.000006 19.934300 -4.560220 -72.418200 -11.754300 -0.000006 -0.000006 -0.144087 -0.243150 -20.751600
0.000000 0.000000 0.000000 0.000000 0.000000 -0.000000 128.042000 89.325400 157.165000 103.803000 -53.002300 13.558300 15.735700 0.000005 -0.000001 110.875000 82.840200 -111.099000 8.984550 -0.406207 -0.000000 5.641010 5.094430 -0.697990 16.377300 -0.000001 -0.000001 6.455600 -14.625100 6.616450 6.456720 -0.000001 -0.000000 3.833680 -27.170800 2.348640 12.994200 -0.242716 4.980390 -88.802100 -2.741950 -66.389900 5.348090 -0.000007 -0.000001 -77.095300 31.103200 6.702990 24.328600 0.000019 0.000005 4.296080 9.378080 -24.751300 22.291600 -0.000001 0.000005 -0.035485 5.520410 -7.379090 12.994500 -0.242716 -4.980390 89.877100 0.350668 -70.694400 -5.348130 -0.000001 -0.000004 -51.306800 34.309500 -39.220100 -24.328900 0.000322 -0.000009 4.972840 5.523480 -42.118900 -22.291500 -0.000108 -0.000004 3.407000 5.536770 -8.096150 -2.192480 -6.469440 -0.000000 -174.825000 4.799720 -19.207900 39.081100 -0.000007 -0.000012 -0.007410 0.009215 38.812600 40.985400 -0.000006 -0.000013 1.717050 -6.187710 -60.771200 11.754300 -0.000000 0.000003 -0.006493 -0.075263 -19.640300 -2.192510 6.469440 -0.000001 -176.274000 10.197200 -176.361000 -39.081100 -0.002282 -0.040193 -0.001993 0.011835 24.150300 -40.985400 0.000008 0.000006 19.785300 -2.620530 -72.702800 -11.754300 -0.000006 -0.000006 -0.372548 -0.486634 -21.008800
0.000000 0.000000 0.000000 0.000000 0.000000 -0.000000 126.811000 89.278400 158.619000 104.501000 -56.251600 13.990300 15.735700 0.000005 -0.000001 111.608000 82.507700 -111.919000 8.984550 -0.406207 -0.000000 6.202740 5.506920 -0.920968 16.377300 -0.000001 -0.000001 6.175480 -14.115400 6.110210 6.456720 -0.000001 -0.000000 3.570540 -26.537600 2.426800 12.994200 -0.242716 4.980390 -88.769600 -2.796230 -66.237100 5.348090 -0.000007 -0.000001 -77.698900 29.761800 7.379780 24.328600 0.000019 0.000005 4.261260 10.240900 -22.739600 22.291600 -0.000001 0.000005 -0.050137 5.508550 -6.882260 12.994500 -0.242716 -4.980390 89.962800 0.107954 -70.976000 -5.348130 -0.000001 -0.000004 -48.868200 33.500300 -43.064300 -24.328900 0.000322 -0.000009 4.931550 5.221900 -43.479100 -22.291500 -0.000108 -0.000004 3.490430 5.537110 -8.111310 -2.192480 -6.469440 -0.000000 -175.188000 3.416020 -21.330900 39.081100 -0.000007 -0.000012 -0.003550 0.005674 32.037500 40.985400 -0.000006 -0.000013 0.604000 -4.638650 -60.914000 11.754300 -0.000000 0.000003 -0.006116 -0.071895 -19.502900 -2.192510 6.469440 -0.000001 -176.840000 8.159770 -174.599000 -39.081100 -0.002282 -0.040193 -0.003678 0.016458 23.023600 -40.985400 0.000008 0.000006 19.463800 -1.095030 -73.298200 -11.754300 -0.000006 -0.000006 -0.511568 -0.634298 -21.272900
